# xmcd
#
# Track frame offsets:
#	150
#	11987
#	23967
#	35810
#	48175
#	59950
#	72282
#	84775
#	94997
#	106350
#	116147
#	130622
#	143267
#	155575
#
# Disc length: 2220 seconds
#
# Revision: 1
# Processed by: cddbd v1.4PL0 Copyright (c) Steve Scherf et al.
# Submitted via: EasyCDDAExtractor 5.0.6
#
DISCID=c008aa0e
DTITLE=Val Doonican - Song Sung Blue
DYEAR=1995
DGENRE=Country
TTITLE0=Walk Tall
TTITLE1=The Special Years
TTITLE2=What Would It Be
TTITLE3=Elusive Buuterfly
TTITLE4=If The Wolrd Stopped Loving
TTITLE5=O'Rafferty's Motor Car
TTITLE6=Morning
TTITLE7=If I Knew What I Know Now
TTITLE8=Song Sung Blue
TTITLE9=King Of The Road
TTITLE10=Suddenly
TTITLE11=Delaney's Donkey
TTITLE12=Now
TTITLE13=Two Streets
EXTD=
EXTT0=
EXTT1=
EXTT2=
EXTT3=
EXTT4=
EXTT5=
EXTT6=
EXTT7=
EXTT8=
EXTT9=
EXTT10=
EXTT11=
EXTT12=
EXTT13=
PLAYORDER=
